<svg xmlns="http://www.w3.org/2000/svg" viewBox="0 0 68.97 120"><defs><style>.cls-1{fill:#a62121;}.cls-1,.cls-2{fill-rule:evenodd;}.cls-2{fill:#11151d;}</style></defs><g id="Layer_2" data-name="Layer 2"><g id="Layer_1-2" data-name="Layer 1"><g id="Layer_1-3" data-name="Layer_1"><g id="_1833183233264" data-name=" 1833183233264"><path class="cls-1" d="M.06,93.54C2.57,106.1,18.15,119.73,30.88,120,56.63,120.51,69,99.67,69,87.61V0C57.4,2,48.84,4.87,47.64,12.24c0,41.6,0,41.44,0,75.34-2.51,18.83-37.53,27.31-47.58,6Z"/><path class="cls-2" d="M10.54,102.1c4.49,2.62,9,2.92,14.5,1.8V68.74H45.13V42.37c-5,0-13.53-.87-20.85,2A38.11,38.11,0,0,0,1,71.3c-2.45,10.8-.73,24.81,9.55,30.8Z"/><path class="cls-2" d="M27.55,103.9c12.56-3.77,15.94-10.43,17.58-15.07V71.25H27.55Z"/></g></g></g></g></svg>